<svg xmlns="http://www.w3.org/2000/svg" version="1.1" xmlns:xlink="http://www.w3.org/1999/xlink" xmlns:svgjs="http://svgjs.dev/svgjs" width="1500" height="1500" viewBox="0 0 1500 1500"><rect width="1500" height="1500" fill="#ffffff"></rect><g transform="matrix(0.6666666666666666,0,0,0.6666666666666666,249.39393939393943,680.1402046763704)"><svg viewBox="0 0 396 55" data-background-color="#ffffff" preserveAspectRatio="xMidYMid meet" height="208" width="1500" xmlns="http://www.w3.org/2000/svg" xmlns:xlink="http://www.w3.org/1999/xlink"><g id="tight-bounds" transform="matrix(1,0,0,1,0.2400000000000091,0.20881304903574005)"><svg viewBox="0 0 395.52 54.582373901928506" height="54.582373901928506" width="395.52"><g><svg viewBox="0 0 506.8772369838835 69.9498454475899" height="54.582373901928506" width="395.52"><g><rect width="6.2767654235862285" height="69.9498454475899" x="88.64914846190402" y="0" fill="#000000" opacity="1" stroke-width="0" stroke="transparent" fill-opacity="1" class="rect-qz-0" data-fill-palette-color="primary" rx="1%" id="qz-0" data-palette-color="#729343"></rect></g><g transform="matrix(1,0,0,1,111.35723698388351,0.17400459066564622)"><svg viewBox="0 0 395.52 69.6018362662586" height="69.6018362662586" width="395.52"><g id="textblocktransform"><svg viewBox="0 0 395.52 69.6018362662586" height="69.6018362662586" width="395.52" id="textblock"><g><svg viewBox="0 0 395.52 69.6018362662586" height="69.6018362662586" width="395.52"><g transform="matrix(1,0,0,1,0,0)"><svg width="395.52" viewBox="0.1 -33.65 196.03 34.5" height="69.6018362662586" data-palette-color="#729343"><path d="M14.95-24.05L19.2-33.2Q22.15-24.95 25.53-17.28 28.9-9.6 31.75-2.95L31.75-2.95 35.65-1.9 35 0Q33.45-0.1 31.53-0.13 29.6-0.15 28.05-0.15L28.05-0.15Q27.15-0.15 25.68-0.13 24.2-0.1 22.75-0.08 21.3-0.05 20.4 0L20.4 0 19.7-1.9 23.6-2.95Q22.1-6.8 19.83-12.33 17.55-17.85 14.95-24.05L14.95-24.05ZM16.65-33.2L19.2-33.2Q18.85-32.3 18.53-31.55 18.2-30.8 17.85-29.75 17.5-28.7 17.1-26.9L17.1-26.9Q16.15-24.3 14.98-21.08 13.8-17.85 12.58-14.53 11.35-11.2 10.35-8.18 9.35-5.15 8.8-2.95L8.8-2.95 12.5-1.9 11.85 0Q8.65-0.15 5.95-0.15L5.95-0.15Q3.45-0.15 0.75 0L0.75 0 0.1-1.9 3.8-2.95Q4.75-4.7 6.03-7.38 7.3-10.05 8.72-13.3 10.15-16.55 11.6-20.05 13.05-23.55 14.35-26.93 15.65-30.3 16.65-33.2L16.65-33.2ZM23.85-11.25L23.85-11.25 23.85-7.35Q21.7-7.6 19.78-7.65 17.85-7.7 16.25-7.7L16.25-7.7Q14.55-7.7 12.93-7.65 11.3-7.6 9.35-7.35L9.35-7.35 9.35-11.2Q11.3-10.95 12.93-10.85 14.55-10.75 16.25-10.75L16.25-10.75Q17.85-10.75 19.78-10.85 21.7-10.95 23.85-11.25ZM47.25 0.85L47.25 0.85Q44.1 0.85 42.32-1.3 40.55-3.45 40.3-7.55L40.3-7.55Q40.2-9.3 40.2-11.88 40.2-14.45 40.25-18.35L40.25-18.35 36.7-18.9 36.1-20.95Q39-20.95 41.82-21.15 44.65-21.35 47.1-21.7L47.1-21.7Q47-19.4 46.87-17.48 46.75-15.55 46.75-13.58 46.75-11.6 46.9-9L46.9-9Q47.05-6.1 48.25-5 49.45-3.9 50.6-3.9L50.6-3.9Q51.8-4.15 52.85-5.53 53.9-6.9 54.55-8.88 55.2-10.85 55.2-12.8L55.2-12.8 56.5-8.55Q56.2-6.1 54.95-3.95 53.7-1.8 51.72-0.48 49.75 0.85 47.25 0.85ZM55.6 0L55.6 0Q55.55-1.5 55.42-3.2 55.3-4.9 55.25-7.25L55.25-7.25 54.95-18.3 51.35-18.9 50.75-20.95Q53.7-20.95 56.45-21.15 59.2-21.35 61.7-21.7L61.7-21.7Q61.7-21.7 61.67-20.55 61.65-19.4 61.62-17.7 61.6-16 61.55-14.33 61.5-12.65 61.47-11.5 61.45-10.35 61.45-10.35L61.45-10.35Q61.5-8.65 61.62-7.13 61.75-5.6 61.95-2.9L61.95-2.9 65.7-1.85 64.75 0Q63.45-0.1 62.32-0.1 61.2-0.1 59.45-0.1L59.45-0.1Q58.7-0.1 57.5-0.05 56.3 0 55.6 0ZM76.3-27.6L76.3-27.6Q76.2-25.85 76.15-23.53 76.09-21.2 76.07-18.73 76.05-16.25 76.07-14 76.09-11.75 76.12-10.1 76.15-8.45 76.2-7.8L76.2-7.8Q76.3-5.95 76.84-5.2 77.4-4.45 78.59-4.45L78.59-4.45Q79.45-4.45 80.4-4.75 81.34-5.05 82.9-6L82.9-6 83.9-4Q82.65-2.95 81.22-1.9 79.8-0.85 78.12-0.18 76.45 0.5 74.39 0.5L74.39 0.5Q73.25 0.5 72.14 0.03 71.05-0.45 70.37-1.63 69.7-2.8 69.7-4.8L69.7-4.8Q69.7-4.75 69.72-5.7 69.75-6.65 69.77-8.22 69.8-9.8 69.84-11.55 69.89-13.3 69.92-14.85 69.95-16.4 69.97-17.38 70-18.35 70-18.25L70-18.25Q69.95-18.8 69.37-19.2 68.8-19.6 68.05-19.9 67.3-20.2 66.7-20.45 66.09-20.7 66.05-21L66.05-21Q67.25-21.2 68.09-21.4 68.95-21.6 69.95-21.85L69.95-21.85Q71.05-23.3 71.92-24.58 72.8-25.85 73.95-27.6L73.95-27.6Q74.39-27.6 75.09-27.6 75.8-27.6 76.3-27.6ZM66.05-21L83.2-21.05 83.2-17.4 66.05-18.4 66.05-21ZM96.44-21.7L96.44-21.7Q100.14-21.7 102.62-20.15 105.09-18.6 106.32-16.1 107.54-13.6 107.54-10.7L107.54-10.7Q107.54-7.75 106.29-5.18 105.04-2.6 102.54-1.05 100.04 0.5 96.29 0.5L96.29 0.5Q92.54 0.5 89.99-1.07 87.44-2.65 86.14-5.25 84.84-7.85 84.84-10.8L84.84-10.8Q84.84-13.7 86.12-16.18 87.39-18.65 89.97-20.18 92.54-21.7 96.44-21.7ZM91.84-11.85L91.84-11.85Q91.84-9.35 92.42-7.1 92.99-4.85 94.14-3.45 95.29-2.05 96.89-2.05L96.89-2.05Q98.79-2.05 99.72-4.13 100.64-6.2 100.64-9.3L100.64-9.3Q100.64-11.8 100.07-14.03 99.49-16.25 98.37-17.68 97.24-19.1 95.59-19.1L95.59-19.1Q93.69-19.1 92.77-17.03 91.84-14.95 91.84-11.85ZM123.79-33.65L123.79-33.65Q126.54-33.65 129.39-33.02 132.24-32.4 134.29-31.35L134.29-31.35Q133.79-28.9 133.39-27.08 132.99-25.25 132.59-23.3L132.59-23.3 129.39-23.3 128.89-28.75Q128.19-29.75 126.72-30.28 125.24-30.8 123.64-30.8L123.64-30.8Q121.69-30.8 120.14-29.7 118.59-28.6 118.59-26.5L118.59-26.5Q118.59-24.85 119.82-23.73 121.04-22.6 122.97-21.68 124.89-20.75 127.04-19.75 129.19-18.75 131.12-17.38 133.04-16 134.27-13.95 135.49-11.9 135.49-8.85L135.49-8.85Q135.49-5.55 133.64-3.48 131.79-1.4 128.87-0.45 125.94 0.5 122.64 0.5L122.64 0.5Q119.59 0.5 116.64-0.25 113.69-1 111.54-2.35L111.54-2.35Q112.09-4.6 112.47-6.38 112.84-8.15 113.19-10.6L113.19-10.6 116.44-10.6 117.14-4.1Q118.29-3.3 119.62-2.85 120.94-2.4 122.39-2.4L122.39-2.4Q124.74-2.4 126.52-3.58 128.29-4.75 128.29-7.45L128.29-7.45Q128.29-9.55 127.12-10.85 125.94-12.15 124.09-13.05 122.24-13.95 120.17-14.8 118.09-15.65 116.24-16.8 114.39-17.95 113.22-19.75 112.04-21.55 112.04-24.4L112.04-24.4Q112.04-27.5 113.67-29.55 115.29-31.6 117.97-32.63 120.64-33.65 123.79-33.65ZM153.24-33.65L153.24-33.65Q155.99-33.65 158.84-33.02 161.69-32.4 163.74-31.35L163.74-31.35Q163.24-28.9 162.84-27.08 162.44-25.25 162.04-23.3L162.04-23.3 158.84-23.3 158.34-28.75Q157.64-29.75 156.16-30.28 154.69-30.8 153.09-30.8L153.09-30.8Q151.14-30.8 149.59-29.7 148.04-28.6 148.04-26.5L148.04-26.5Q148.04-24.85 149.26-23.73 150.49-22.6 152.41-21.68 154.34-20.75 156.49-19.75 158.64-18.75 160.56-17.38 162.49-16 163.71-13.95 164.94-11.9 164.94-8.85L164.94-8.85Q164.94-5.55 163.09-3.48 161.24-1.4 158.31-0.45 155.39 0.5 152.09 0.5L152.09 0.5Q149.04 0.5 146.09-0.25 143.14-1 140.99-2.35L140.99-2.35Q141.54-4.6 141.91-6.38 142.29-8.15 142.64-10.6L142.64-10.6 145.89-10.6 146.59-4.1Q147.74-3.3 149.06-2.85 150.39-2.4 151.84-2.4L151.84-2.4Q154.19-2.4 155.96-3.58 157.74-4.75 157.74-7.45L157.74-7.45Q157.74-9.55 156.56-10.85 155.39-12.15 153.54-13.05 151.69-13.95 149.61-14.8 147.54-15.65 145.69-16.8 143.84-17.95 142.66-19.75 141.49-21.55 141.49-24.4L141.49-24.4Q141.49-27.5 143.11-29.55 144.74-31.6 147.41-32.63 150.09-33.65 153.24-33.65ZM173.19-29.85L168.69-31.05 169.34-33Q171.13-32.9 172.84-32.85 174.53-32.8 176.88-32.8L176.88-32.8Q179.03-32.8 181.34-32.85 183.63-32.9 185.74-33L185.74-33 186.44-31.05 180.74-29.9Q180.69-25.75 180.69-22.4 180.69-19.05 180.69-15.65L180.69-15.65Q180.69-13.05 180.66-9.68 180.63-6.3 180.74-3.45L180.74-3.45Q183.84-3.1 186.51-3.3 189.19-3.5 191.34-4.45L191.34-4.45 192.49-10.5 195.69-10.5Q195.69-8.2 195.81-5.33 195.94-2.45 196.13 0L196.13 0Q190.03-0.1 185.28-0.13 180.53-0.15 177.09-0.15L177.09-0.15Q174.53-0.15 172.71-0.1 170.88-0.05 169.34 0L169.34 0 168.74-1.9 173.19-2.95Q173.28-6.9 173.36-9.83 173.44-12.75 173.44-15.15L173.44-15.15Q173.44-18.55 173.46-22.18 173.49-25.8 173.19-29.85L173.19-29.85Z" opacity="1" transform="matrix(1,0,0,1,0,0)" fill="#000000" class="wordmark-text-0" data-fill-palette-color="primary" id="text-0"></path></svg></g></svg></g></svg></g></svg></g><g transform="matrix(1,0,0,1,0,0.17400459066564622)"><svg viewBox="0 0 72.21782536351076 69.6018362662586" height="69.6018362662586" width="72.21782536351076"><g><svg xmlns="http://www.w3.org/2000/svg" xmlns:xlink="http://www.w3.org/1999/xlink" version="1.1" x="0" y="0" viewBox="9.167 10.215 71.666 69.07000000000001" enable-background="new 0 0 90 90" xml:space="preserve" height="69.6018362662586" width="72.21782536351076" class="icon-icon-0" data-fill-palette-color="accent" id="icon-0"><path d="M77.546 34.59H12.455c-1.816 0-3.288 1.472-3.288 3.288v14.246c0 1.815 1.472 3.287 3.288 3.287h65.091c1.815 0 3.287-1.472 3.287-3.287V37.877C80.833 36.062 79.361 34.59 77.546 34.59zM57.491 48.178H16.508v-6.355h40.983V48.178zM72.229 47.959c-1.634 0-2.958-1.325-2.958-2.959s1.324-2.958 2.958-2.958c1.635 0 2.959 1.325 2.959 2.958S73.864 47.959 72.229 47.959zM77.546 58.465H12.455c-1.816 0-3.288 1.472-3.288 3.287v14.246c0 1.815 1.472 3.287 3.288 3.287h65.091c1.815 0 3.287-1.472 3.287-3.287V61.752C80.833 59.937 79.361 58.465 77.546 58.465zM57.491 72.053H16.508v-6.355h40.983V72.053zM72.229 71.834c-1.634 0-2.958-1.325-2.958-2.959s1.324-2.959 2.958-2.959c1.635 0 2.959 1.325 2.959 2.959S73.864 71.834 72.229 71.834zM77.546 10.215H12.455c-1.816 0-3.288 1.472-3.288 3.288v14.246c0 1.815 1.472 3.287 3.288 3.287h65.091c1.815 0 3.287-1.472 3.287-3.287V13.502C80.833 11.687 79.361 10.215 77.546 10.215zM57.491 23.803H16.508v-6.355h40.983V23.803zM72.229 23.584c-1.634 0-2.958-1.325-2.958-2.959s1.324-2.958 2.958-2.958c1.635 0 2.959 1.325 2.959 2.958S73.864 23.584 72.229 23.584z" fill="#000000" data-fill-palette-color="accent"></path></svg></g></svg></g></svg></g><defs></defs></svg><rect width="395.52" height="54.582373901928506" fill="none" stroke="none" visibility="hidden"></rect></g></svg></g></svg>